<?xml version="1.0" encoding="UTF-8" standalone="no"?>
<!DOCTYPE svg PUBLIC "-//W3C//DTD SVG 1.1//EN"
 "http://www.w3.org/Graphics/SVG/1.1/DTD/svg11.dtd">
<!-- Generated by graphviz version 2.40.1 (20161225.0304)
 -->
<!-- Title: %3 Pages: 1 -->
<svg width="280pt" height="337pt"
 viewBox="0.00 0.00 279.60 336.88" xmlns="http://www.w3.org/2000/svg" xmlns:xlink="http://www.w3.org/1999/xlink">
<g id="graph0" class="graph" transform="scale(1 1) rotate(0) translate(4 332.8772)">
<title>%3</title>
<polygon fill="#ffffff" stroke="transparent" points="-4,4 -4,-332.8772 275.6039,-332.8772 275.6039,4 -4,4"/>
<!-- In0 -->
<g id="node1" class="node">
<title>In0</title>
<polygon fill="#d3d3d3" stroke="#000000" points="240.7132,-187.066 211.7132,-187.066 211.7132,-169.066 240.7132,-169.066 240.7132,-187.066"/>
<text text-anchor="middle" x="226.2132" y="-175.866" font-family="Times,serif" font-size="9.00" fill="#000000">In0</text>
</g>
<!-- act1 -->
<g id="node5" class="node">
<title>act1</title>
<ellipse fill="#add8e6" stroke="#000000" cx="170.2132" cy="-21.9203" rx="21.8409" ry="21.8409"/>
<text text-anchor="middle" x="170.2132" y="-19.7203" font-family="Times,serif" font-size="9.00" fill="#000000">act1</text>
</g>
<!-- In0&#45;&gt;act1 -->
<g id="edge1" class="edge">
<title>In0&#45;&gt;act1</title>
<path fill="none" stroke="#00ff00" stroke-width=".4212" d="M222.8779,-168.766C214.8283,-146.3213 194.0493,-88.3829 181.1282,-52.3549"/>
<polygon fill="#00ff00" stroke="#00ff00" stroke-width=".4212" points="184.3798,-51.0532 177.7093,-42.8218 177.7907,-53.4164 184.3798,-51.0532"/>
</g>
<!-- act2 -->
<g id="node6" class="node">
<title>act2</title>
<ellipse fill="#add8e6" stroke="#000000" cx="158.2132" cy="-101.7609" rx="21.8409" ry="21.8409"/>
<text text-anchor="middle" x="158.2132" y="-99.5609" font-family="Times,serif" font-size="9.00" fill="#000000">act2</text>
</g>
<!-- In0&#45;&gt;act2 -->
<g id="edge2" class="edge">
<title>In0&#45;&gt;act2</title>
<path fill="none" stroke="#ff0000" stroke-width=".1999" d="M218.1457,-169.0132C208.7656,-158.4875 192.9023,-140.6867 179.8518,-126.0423"/>
<polygon fill="#ff0000" stroke="#ff0000" stroke-width=".1999" points="182.216,-123.4345 172.9499,-118.2974 176.99,-128.0917 182.216,-123.4345"/>
</g>
<!-- In1 -->
<g id="node2" class="node">
<title>In1</title>
<polygon fill="#d3d3d3" stroke="#000000" points="116.7132,-187.066 87.7132,-187.066 87.7132,-169.066 116.7132,-169.066 116.7132,-187.066"/>
<text text-anchor="middle" x="102.2132" y="-175.866" font-family="Times,serif" font-size="9.00" fill="#000000">In1</text>
</g>
<!-- In1&#45;&gt;act1 -->
<g id="edge3" class="edge">
<title>In1&#45;&gt;act1</title>
<path fill="none" stroke="#ff0000" stroke-width=".4682" d="M103.3221,-168.9973C105.7545,-151.1822 112.5516,-110.6694 127.2132,-79.8406 132.8441,-68.0005 141.0605,-56.1582 148.8061,-46.2955"/>
<polygon fill="#ff0000" stroke="#ff0000" stroke-width=".4682" points="151.5367,-48.4851 155.1346,-38.5199 146.1076,-44.0664 151.5367,-48.4851"/>
</g>
<!-- In1&#45;&gt;act2 -->
<g id="edge4" class="edge">
<title>In1&#45;&gt;act2</title>
<path fill="none" stroke="#00ff00" stroke-width=".4202" d="M108.857,-169.0132C116.3165,-158.849 128.7547,-141.9008 139.2781,-127.5617"/>
<polygon fill="#00ff00" stroke="#00ff00" stroke-width=".4202" points="142.1057,-129.6244 145.2007,-119.4917 136.4624,-125.4828 142.1057,-129.6244"/>
</g>
<!-- In3 -->
<g id="node3" class="node">
<title>In3</title>
<polygon fill="#d3d3d3" stroke="#000000" points="154.7132,-262.664 125.7132,-262.664 125.7132,-244.664 154.7132,-244.664 154.7132,-262.664"/>
<text text-anchor="middle" x="140.2132" y="-251.464" font-family="Times,serif" font-size="9.00" fill="#000000">In3</text>
</g>
<!-- In3&#45;&gt;act1 -->
<g id="edge5" class="edge">
<title>In3&#45;&gt;act1</title>
<path fill="none" stroke="#ff0000" stroke-width=".4622" stroke-dasharray="1,5" d="M154.9286,-251.0206C179.7331,-245.6841 229.213,-231.0443 250.2132,-196.4508 281.7311,-144.5315 227.8488,-78.0982 194.1722,-44.1176"/>
<polygon fill="#ff0000" stroke="#ff0000" stroke-width=".4622" points="196.5064,-41.5041 186.9237,-36.9849 191.5966,-46.4936 196.5064,-41.5041"/>
</g>
<!-- In3&#45;&gt;act2 -->
<g id="edge6" class="edge">
<title>In3&#45;&gt;act2</title>
<path fill="none" stroke="#ff0000" stroke-width=".231" stroke-dasharray="1,5" d="M141.2853,-244.6167C143.8094,-223.3157 150.2274,-169.1535 154.3957,-133.9771"/>
<polygon fill="#ff0000" stroke="#ff0000" stroke-width=".231" points="157.9091,-134.0696 155.6103,-123.7272 150.9578,-133.2459 157.9091,-134.0696"/>
</g>
<!-- 16 -->
<g id="node9" class="node">
<title>16</title>
<ellipse fill="#ffffff" stroke="#000000" cx="51.2132" cy="-178.066" rx="18.2703" ry="18.2703"/>
<text text-anchor="middle" x="51.2132" y="-175.866" font-family="Times,serif" font-size="9.00" fill="#000000">16</text>
</g>
<!-- In3&#45;&gt;16 -->
<g id="edge11" class="edge">
<title>In3&#45;&gt;16</title>
<path fill="none" stroke="#ff0000" stroke-width=".4779" d="M129.9893,-244.5183C125.7497,-240.7543 120.7667,-236.3669 116.2132,-232.4508 102.029,-220.2522 85.9001,-206.7552 73.2573,-196.2587"/>
<polygon fill="#ff0000" stroke="#ff0000" stroke-width=".4779" points="75.4415,-193.5231 65.5081,-189.8381 70.9754,-198.9133 75.4415,-193.5231"/>
</g>
<!-- In4 -->
<g id="node4" class="node">
<title>In4</title>
<polygon fill="#d3d3d3" stroke="#000000" points="100.7132,-328.8772 71.7132,-328.8772 71.7132,-310.8772 100.7132,-310.8772 100.7132,-328.8772"/>
<text text-anchor="middle" x="86.2132" y="-317.6772" font-family="Times,serif" font-size="9.00" fill="#000000">In4</text>
</g>
<!-- In4&#45;&gt;act1 -->
<g id="edge7" class="edge">
<title>In4&#45;&gt;act1</title>
<path fill="none" stroke="#00ff00" stroke-width=".1517" stroke-dasharray="1,5" d="M100.743,-315.8463C138.1227,-304.5491 236.8748,-268.5838 268.2132,-196.4508 280.4426,-168.3019 254.7513,-83.7417 252.2132,-79.8406 239.4245,-60.184 217.4279,-45.1902 199.4349,-35.3876"/>
<polygon fill="#00ff00" stroke="#00ff00" stroke-width=".1517" points="200.9497,-32.2306 190.4606,-30.7375 197.7292,-38.4458 200.9497,-32.2306"/>
</g>
<!-- In4&#45;&gt;act2 -->
<g id="edge8" class="edge">
<title>In4&#45;&gt;act2</title>
<path fill="none" stroke="#00ff00" stroke-width=".6945" d="M100.9072,-316.2345C119.4634,-310.7566 150.6081,-298.4332 164.2132,-274.8772 189.7847,-230.6025 178.7445,-168.7809 168.4435,-132.2468"/>
<polygon fill="#00ff00" stroke="#00ff00" stroke-width=".6945" points="171.7944,-131.2357 165.5887,-122.6484 165.0849,-133.2313 171.7944,-131.2357"/>
</g>
<!-- 324 -->
<g id="node7" class="node">
<title>324</title>
<ellipse fill="#ffffff" stroke="#000000" cx="21.2132" cy="-101.7609" rx="21.4286" ry="21.4286"/>
<text text-anchor="middle" x="21.2132" y="-99.5609" font-family="Times,serif" font-size="9.00" fill="#000000">324</text>
</g>
<!-- In4&#45;&gt;324 -->
<g id="edge14" class="edge">
<title>In4&#45;&gt;324</title>
<path fill="none" stroke="#00ff00" stroke-width=".2706" d="M74.9082,-310.6879C65.3509,-302.3218 52.0053,-289.1299 44.2132,-274.8772 19.7242,-230.0835 17.4995,-169.3225 18.8455,-132.9767"/>
<polygon fill="#00ff00" stroke="#00ff00" stroke-width=".2706" points="22.3424,-133.1236 19.3304,-122.9659 15.3506,-132.7848 22.3424,-133.1236"/>
</g>
<!-- 237 -->
<g id="node8" class="node">
<title>237</title>
<ellipse fill="#ffffff" stroke="#000000" cx="86.2132" cy="-253.664" rx="21.4286" ry="21.4286"/>
<text text-anchor="middle" x="86.2132" y="-251.464" font-family="Times,serif" font-size="9.00" fill="#000000">237</text>
</g>
<!-- In4&#45;&gt;237 -->
<g id="edge12" class="edge">
<title>In4&#45;&gt;237</title>
<path fill="none" stroke="#00ff00" stroke-width=".331" d="M86.2132,-310.6705C86.2132,-304.0095 86.2132,-294.5846 86.2132,-285.3125"/>
<polygon fill="#00ff00" stroke="#00ff00" stroke-width=".331" points="89.7133,-285.0643 86.2132,-275.0644 82.7133,-285.0644 89.7133,-285.0643"/>
</g>
<!-- In4&#45;&gt;16 -->
<g id="edge9" class="edge">
<title>In4&#45;&gt;16</title>
<path fill="none" stroke="#00ff00" stroke-width=".2701" stroke-dasharray="1,5" d="M77.8856,-310.6758C70.692,-302.1001 60.759,-288.6038 56.2132,-274.8772 48.8918,-252.7696 48.0244,-226.2762 48.773,-206.5975"/>
<polygon fill="#00ff00" stroke="#00ff00" stroke-width=".2701" points="52.2772,-206.6121 49.3243,-196.4371 45.2875,-206.2327 52.2772,-206.6121"/>
</g>
<!-- 324&#45;&gt;act1 -->
<g id="edge15" class="edge">
<title>324&#45;&gt;act1</title>
<path fill="none" stroke="#ff0000" stroke-width=".1369" d="M39.1926,-90.0711C44.6036,-86.6702 50.5968,-83.0178 56.2132,-79.8406 84.574,-63.7973 117.8886,-47.1107 141.1535,-35.7924"/>
<polygon fill="#ff0000" stroke="#ff0000" stroke-width=".1369" points="142.6808,-38.9417 150.1581,-31.4356 139.632,-32.6405 142.6808,-38.9417"/>
</g>
<!-- 237&#45;&gt;16 -->
<g id="edge13" class="edge">
<title>237&#45;&gt;16</title>
<path fill="none" stroke="#ff0000" stroke-width=".4478" d="M77.1998,-234.1956C72.9768,-225.0741 67.8838,-214.0735 63.3296,-204.2368"/>
<polygon fill="#ff0000" stroke="#ff0000" stroke-width=".4478" points="66.3848,-202.505 59.0073,-194.9009 60.0326,-205.446 66.3848,-202.505"/>
</g>
<!-- 16&#45;&gt;act1 -->
<g id="edge10" class="edge">
<title>16&#45;&gt;act1</title>
<path fill="none" stroke="#00ff00" stroke-width=".4307" d="M59.1193,-161.1347C69.047,-140.7709 87.3308,-106.0582 108.2132,-79.8406 119.0252,-66.2664 133.0166,-52.9191 144.9712,-42.4648"/>
<polygon fill="#00ff00" stroke="#00ff00" stroke-width=".4307" points="147.5315,-44.8807 152.858,-35.7222 142.9827,-39.5601 147.5315,-44.8807"/>
</g>
<!-- 16&#45;&gt;act2 -->
<g id="edge17" class="edge">
<title>16&#45;&gt;act2</title>
<path fill="none" stroke="#ff0000" stroke-width=".1744" stroke-dasharray="1,5" d="M66.5437,-167.1334C83.5328,-155.0179 111.2369,-135.2612 131.7487,-120.6336"/>
<polygon fill="#ff0000" stroke="#ff0000" stroke-width=".1744" points="133.9373,-123.3717 140.047,-114.7158 129.873,-117.6724 133.9373,-123.3717"/>
</g>
<!-- 16&#45;&gt;324 -->
<g id="edge16" class="edge">
<title>16&#45;&gt;324</title>
<path fill="none" stroke="#ff0000" stroke-width=".4689" d="M44.4057,-160.7512C40.9828,-152.0449 36.7388,-141.2503 32.8207,-131.2846"/>
<polygon fill="#ff0000" stroke="#ff0000" stroke-width=".4689" points="35.97,-129.7292 29.0537,-121.7033 29.4554,-132.2905 35.97,-129.7292"/>
</g>
</g>
</svg>
